<svg width="65" height="64" viewBox="0 0 65 64" fill="none" xmlns="http://www.w3.org/2000/svg">
<g clip-path="url(#clip0_2_543)">
<rect x="6.5" y="10.75" width="52.5" height="42.5" rx="3.25" stroke="#767CAD" stroke-width="1.5"/>
<path d="M6.25 17.5H59.25" stroke="#767CAD" stroke-width="1.5"/>
<circle cx="10.75" cy="14" r="1" fill="#9298C8"/>
<circle cx="13.75" cy="14" r="1" fill="#9298C8"/>
<circle cx="16.75" cy="14" r="1" fill="#9298C8"/>
<path d="M36.9443 41.8538C36.9443 41.7714 37.0111 41.7045 37.0936 41.7045H37.8993C37.9818 41.7045 38.0486 41.7714 38.0486 41.8538V42.2567H36.9443V41.8538Z" fill="#9A9DAC"/>
<path d="M38.0486 41.8538C38.0486 41.7714 38.1154 41.7045 38.1978 41.7045H39.0036C39.086 41.7045 39.1528 41.7714 39.1528 41.8538V42.2567H38.0486V41.8538Z" fill="#9A9DAC"/>
<path d="M39.1528 41.8538C39.1528 41.7714 39.2196 41.7045 39.302 41.7045H40.1078C40.1902 41.7045 40.257 41.7714 40.257 41.8538V42.2567H39.1528V41.8538Z" fill="#9A9DAC"/>
<path d="M40.257 41.8538C40.257 41.7714 40.3238 41.7045 40.4062 41.7045H41.212C41.2944 41.7045 41.3612 41.7714 41.3612 41.8538V42.2567H40.257V41.8538Z" fill="#9A9DAC"/>
<path d="M41.3612 40.1974C41.3612 40.115 41.428 40.0482 41.5104 40.0482H42.3162C42.3986 40.0482 42.4654 40.115 42.4654 40.1974V42.2567H41.3612V40.1974Z" fill="#9A9DAC"/>
<path d="M42.4654 34.6763C42.4654 34.5939 42.5323 34.5271 42.6147 34.5271H43.4204C43.5029 34.5271 43.5697 34.5939 43.5697 34.6763V42.2567H42.4654V34.6763Z" fill="#9A9DAC"/>
<path d="M43.5697 40.1974C43.5697 40.115 43.6365 40.0482 43.7189 40.0482H44.5247C44.6071 40.0482 44.6739 40.115 44.6739 40.1974V42.2567H43.5697V40.1974Z" fill="#9A9DAC"/>
<path d="M44.6739 41.3017C44.6739 41.2192 44.7407 41.1524 44.8231 41.1524H45.6289C45.7113 41.1524 45.7781 41.2192 45.7781 41.3017V42.2567H44.6739V41.3017Z" fill="#9A9DAC"/>
<path d="M45.7781 41.8538C45.7781 41.7714 45.8449 41.7045 45.9273 41.7045H46.7331C46.8155 41.7045 46.8823 41.7714 46.8823 41.8538V42.2567H45.7781V41.8538Z" fill="#9A9DAC"/>
<path d="M46.8823 41.8538C46.8823 41.7714 46.9491 41.7045 47.0316 41.7045H47.8373C47.9198 41.7045 47.9866 41.7714 47.9866 41.8538V42.2567H46.8823V41.8538Z" fill="#9A9DAC"/>
<path d="M47.9866 41.3017C47.9866 41.2192 48.0534 41.1524 48.1358 41.1524H48.9416C49.024 41.1524 49.0908 41.2192 49.0908 41.3017V42.2567H47.9866V41.3017Z" fill="#9A9DAC"/>
<path d="M49.0908 39.0932C49.0908 39.0108 49.1576 38.944 49.24 38.944H50.0458C50.1282 38.944 50.195 39.0108 50.195 39.0932V42.2567H49.0908V39.0932Z" fill="#9A9DAC"/>
<path d="M50.195 41.3017C50.195 41.2192 50.2618 41.1524 50.3442 41.1524H51.15C51.2324 41.1524 51.2992 41.2192 51.2992 41.3017V42.2567H50.195V41.3017Z" fill="#9A9DAC"/>
<path d="M51.2992 41.8538C51.2992 41.7714 51.366 41.7045 51.4484 41.7045H52.2542C52.3366 41.7045 52.4034 41.7714 52.4034 41.8538V42.2567H51.2992V41.8538Z" fill="#9A9DAC"/>
<path d="M52.4035 40.7495C52.4035 40.6671 52.4703 40.6003 52.5527 40.6003H53.3585C53.4409 40.6003 53.5077 40.6671 53.5077 40.7495V42.2567H52.4035V40.7495Z" fill="#9A9DAC"/>
<path d="M53.5077 41.8538C53.5077 41.7714 53.5745 41.7045 53.6569 41.7045H54.4627C54.5451 41.7045 54.6119 41.7714 54.6119 41.8538V42.2567H53.5077V41.8538Z" fill="#9A9DAC"/>
<path d="M54.6119 41.8538C54.6119 41.7714 54.6787 41.7045 54.7611 41.7045H55.5669C55.6493 41.7045 55.7161 41.7714 55.7161 41.8538V42.2567H54.6119V41.8538Z" fill="#9A9DAC"/>
<path d="M36.9443 29.3196C36.9443 29.2372 37.0111 29.1704 37.0936 29.1704H37.8993C37.9818 29.1704 38.0486 29.2372 38.0486 29.3196V29.7225H36.9443V29.3196Z" fill="#9A9DAC"/>
<path d="M38.0386 29.3196C38.0386 29.2372 38.1054 29.1704 38.1878 29.1704H38.9936C39.076 29.1704 39.1428 29.2372 39.1428 29.3196V29.7225H38.0386V29.3196Z" fill="#9A9DAC"/>
<path d="M39.1328 29.3196C39.1328 29.2372 39.1996 29.1704 39.282 29.1704H40.0878C40.1702 29.1704 40.237 29.2372 40.237 29.3196V29.7225H39.1328V29.3196Z" fill="#9A9DAC"/>
<path d="M40.227 26.0069C40.227 25.9245 40.2938 25.8577 40.3762 25.8577H41.182C41.2644 25.8577 41.3312 25.9245 41.3312 26.0069V29.7225H40.227V26.0069Z" fill="#9A9DAC"/>
<path d="M41.3212 23.7985C41.3212 23.7161 41.388 23.6493 41.4704 23.6493H42.2762C42.3586 23.6493 42.4255 23.7161 42.4255 23.7985V29.7225H41.3212V23.7985Z" fill="#9A9DAC"/>
<path d="M42.4155 22.1421C42.4155 22.0597 42.4823 21.9929 42.5647 21.9929H43.3705C43.4529 21.9929 43.5197 22.0597 43.5197 22.1421V29.7225H42.4155V22.1421Z" fill="#9A9DAC"/>
<path d="M43.5097 27.6633C43.5097 27.5808 43.5765 27.514 43.6589 27.514H44.4647C44.5471 27.514 44.6139 27.5808 44.6139 27.6633V29.7225H43.5097V27.6633Z" fill="#9A9DAC"/>
<path d="M44.6039 28.7675C44.6039 28.6851 44.6707 28.6183 44.7531 28.6183H45.5589C45.6413 28.6183 45.7081 28.6851 45.7081 28.7675V29.7225H44.6039V28.7675Z" fill="#9A9DAC"/>
<path d="M45.6981 29.3196C45.6981 29.2372 45.7649 29.1704 45.8473 29.1704H46.6531C46.7355 29.1704 46.8023 29.2372 46.8023 29.3196V29.7225H45.6981V29.3196Z" fill="#9A9DAC"/>
<path d="M46.7923 29.3196C46.7923 29.2372 46.8591 29.1704 46.9416 29.1704H47.7473C47.8297 29.1704 47.8966 29.2372 47.8966 29.3196V29.7225H46.7923V29.3196Z" fill="#9A9DAC"/>
<path d="M47.8866 29.3196C47.8866 29.2372 47.9534 29.1704 48.0358 29.1704H48.8416C48.924 29.1704 48.9908 29.2372 48.9908 29.3196V29.7225H47.8866V29.3196Z" fill="#9A9DAC"/>
<path d="M48.9808 28.7675C48.9808 28.6851 49.0476 28.6183 49.13 28.6183H49.9358C50.0182 28.6183 50.085 28.6851 50.085 28.7675V29.7225H48.9808V28.7675Z" fill="#9A9DAC"/>
<path d="M50.075 27.6633C50.075 27.5808 50.1418 27.514 50.2242 27.514H51.03C51.1124 27.514 51.1792 27.5808 51.1792 27.6633V29.7225H50.075V27.6633Z" fill="#9A9DAC"/>
<path d="M51.1692 28.7675C51.1692 28.6851 51.236 28.6183 51.3184 28.6183H52.1242C52.2066 28.6183 52.2734 28.6851 52.2734 28.7675V29.7225H51.1692V28.7675Z" fill="#9A9DAC"/>
<path d="M52.2634 29.3196C52.2634 29.2372 52.3303 29.1704 52.4127 29.1704H53.2184C53.3009 29.1704 53.3677 29.2372 53.3677 29.3196V29.7225H52.2634V29.3196Z" fill="#9A9DAC"/>
<path d="M53.3577 29.3196C53.3577 29.2372 53.4245 29.1704 53.5069 29.1704H54.3127C54.3951 29.1704 54.4619 29.2372 54.4619 29.3196V29.7225H53.3577V29.3196Z" fill="#9A9DAC"/>
<path d="M54.4519 29.3196C54.4519 29.2372 54.5187 29.1704 54.6011 29.1704H55.4069C55.4893 29.1704 55.5561 29.2372 55.5561 29.3196V29.7225H54.4519V29.3196Z" fill="#9A9DAC"/>
<path d="M55.5461 29.3196C55.5461 29.2372 55.6129 29.1704 55.6953 29.1704H56.5011C56.5835 29.1704 56.6503 29.2372 56.6503 29.3196V29.7225H55.5461V29.3196Z" fill="#9A9DAC"/>
<mask id="mask0_2_543" style="mask-type:alpha" maskUnits="userSpaceOnUse" x="11" y="23" width="24" height="24">
<circle cx="22.6942" cy="35.0152" r="11.5" fill="#D9D9D9"/>
</mask>
<g mask="url(#mask0_2_543)">
<path d="M34.1941 35.0151C34.1941 41.3664 29.0454 46.5151 22.6941 46.5151C16.3428 46.5151 11.1941 41.3664 11.1941 35.0151C11.1941 28.6638 16.3428 23.5151 22.6941 23.5151C29.0454 23.5151 34.1941 28.6638 34.1941 35.0151Z" fill="#7277A1" fill-opacity="0.7"/>
<path d="M32.8908 40.4659H29.3851L29.3851 37.7421C29.3851 37.3555 29.0717 37.0421 28.6851 37.0421H27.223L27.223 34.5312C27.223 34.1446 26.9096 33.8312 26.523 33.8312H25.0608L25.0608 27.714C25.0608 27.3274 24.7474 27.014 24.3608 27.014H22.5986C22.212 27.014 21.8986 27.3274 21.8986 27.714V31.3016H20.4365C20.0499 31.3016 19.7365 31.615 19.7365 32.0016L19.7365 37.9529H18.2743C17.8877 37.9529 17.5743 38.2663 17.5743 38.6529L17.5743 40.4657H12.95C12.5634 40.4657 12.25 40.7791 12.25 41.1657V42.5314V43.0314L12.75 43.0314L33.0908 43.0314L33.5908 43.0314V42.5314V41.1659C33.5908 40.7793 33.2774 40.4659 32.8908 40.4659Z" fill="#B90000" stroke="#F2F2F2"/>
</g>
<path fill-rule="evenodd" clip-rule="evenodd" d="M22.6941 47.9593C29.843 47.9593 35.6383 42.164 35.6383 35.0152C35.6383 27.8663 29.843 22.071 22.6941 22.071C15.5453 22.071 9.75 27.8663 9.75 35.0152C9.75 42.164 15.5453 47.9593 22.6941 47.9593ZM22.6941 49.9593C30.9475 49.9593 37.6383 43.2686 37.6383 35.0152C37.6383 26.7618 30.9475 20.071 22.6941 20.071C14.4407 20.071 7.75 26.7618 7.75 35.0152C7.75 43.2686 14.4407 49.9593 22.6941 49.9593Z" fill="#35384E"/>
<rect x="34.4784" y="43.9816" width="15.9404" height="3.9851" rx="0.996275" transform="rotate(45 34.4784 43.9816)" fill="#EDEDED" stroke="#35384E" stroke-width="1.5"/>
</g>
<defs>
<clipPath id="clip0_2_543">
<rect x="0.75" width="64" height="64" rx="8" fill="white"/>
</clipPath>
</defs>
</svg>
