<svg width="65" height="64" viewBox="0 0 65 64" fill="none" xmlns="http://www.w3.org/2000/svg">
<g clip-path="url(#clip0_2_626)">
<path d="M58.6667 45.8333V46.1666L5.33333 46.1666V45.8333L58.6667 45.8333Z" stroke="#A7ABCB" stroke-width="0.666667"/>
<path d="M20 44.1577L21.8424 46L20 47.8424" stroke="#8A8A8A" stroke-linecap="round"/>
<path d="M23.8424 44.1577L25.6847 46L23.8424 47.8424" stroke="#8A8A8A" stroke-linecap="round"/>
<path d="M42.7128 44.1576L44.5552 46L42.7128 47.8423" stroke="#8A8A8A" stroke-linecap="round"/>
<path d="M21 22.2219L21.3913 22.5332L21.6389 22.2219L21.3913 21.9106L21 22.2219ZM18.0331 17.6887C17.8612 17.4726 17.5467 17.4368 17.3306 17.6087C17.1144 17.7806 17.0786 18.0951 17.2505 18.3113L18.0331 17.6887ZM17.2505 26.1324C17.0786 26.3485 17.1144 26.6631 17.3306 26.835C17.5467 27.0069 17.8612 26.9711 18.0331 26.755L17.2505 26.1324ZM8.5 41.1651V23.88H7.5V41.1651H8.5ZM9.42206 22.7219H21V21.7219H9.42206V22.7219ZM8.5 23.88C8.5 23.4907 8.59198 23.1971 8.73408 23.0127C8.86132 22.8475 9.06394 22.7219 9.42206 22.7219V21.7219C8.78542 21.7219 8.27701 21.9674 7.94191 22.4024C7.62166 22.8181 7.5 23.3535 7.5 23.88H8.5ZM21.3913 21.9106L18.0331 17.6887L17.2505 18.3113L20.6087 22.5332L21.3913 21.9106ZM20.6087 21.9106L17.2505 26.1324L18.0331 26.755L21.3913 22.5332L20.6087 21.9106Z" fill="#B90000"/>
<path d="M8.00002 41V50.6233C8.00002 50.8313 8.16868 51 8.37672 51H11.1912C11.3993 51 11.5679 50.8313 11.5679 50.6233V41.3767C11.5679 41.1687 11.3993 41 11.1912 41H9.78397L8.00002 41Z" fill="#D9D9D9" stroke="#484848"/>
<rect width="4" height="10" rx="0.376698" transform="matrix(-1 0 0 1 56 41)" fill="#D9D9D9" stroke="#484848"/>
<path d="M46.7534 37.7534L52.2466 37.7534V53.2467H46.7534V37.7534ZM27.7534 37.7534L40.2466 37.7534V53.2467H27.7534L27.7534 37.7534Z" fill="#7277A1" stroke="#494D6B" stroke-width="1.50679"/>
<mask id="path-10-inside-1_2_626" fill="white">
<rect x="11" y="37" width="7" height="17" rx="0.753397"/>
</mask>
<rect x="11" y="37" width="7" height="17" rx="0.753397" fill="#7277A1" stroke="#494D6B" stroke-width="3.01359" mask="url(#path-10-inside-1_2_626)"/>
</g>
<defs>
<clipPath id="clip0_2_626">
<rect x="0.75" width="64" height="64" rx="8" fill="white"/>
</clipPath>
</defs>
</svg>
