<svg width="65" height="64" viewBox="0 0 65 64" fill="none" xmlns="http://www.w3.org/2000/svg">
<path d="M59.4167 32.3333V32.6667L6.08333 32.6667V32.3333L59.4167 32.3333Z" stroke="#A7ABCB" stroke-width="0.666667"/>
<path d="M20.75 30.6577L22.5924 32.5001L20.75 34.3424" stroke="#8A8A8A" stroke-linecap="round"/>
<path d="M24.5924 30.6577L26.4347 32.5001L24.5924 34.3424" stroke="#8A8A8A" stroke-linecap="round"/>
<path d="M43.4628 30.6576L45.3052 32.5L43.4628 34.3424" stroke="#8A8A8A" stroke-linecap="round"/>
<path d="M8.75001 27.5V37.1233C8.75001 37.3314 8.91867 37.5 9.12671 37.5H11.9412C12.1493 37.5 12.3179 37.3314 12.3179 37.1233V27.8767C12.3179 27.6687 12.1493 27.5 11.9412 27.5H8.75001Z" fill="#D9D9D9"/>
<path d="M8.75001 22.8155L8.74999 10.38C8.74999 9.46428 9.14934 8.72194 9.64197 8.72194H21.75M21.75 8.72194L18.3918 4.50003M21.75 8.72194L18.3918 12.9437M8.75001 22.5774V27.5M8.75001 27.5V37.1233C8.75001 37.3314 8.91867 37.5 9.12671 37.5H11.9412C12.1493 37.5 12.3179 37.3314 12.3179 37.1233V27.8767C12.3179 27.6687 12.1493 27.5 11.9412 27.5H8.75001Z" stroke="#484848"/>
<rect width="4" height="10" rx="0.376698" transform="matrix(-1 0 0 1 56.75 27.5)" fill="#D9D9D9" stroke="#484848"/>
<path d="M47.5034 24.2535L52.9966 24.2535V39.7467H47.5034V24.2535ZM28.5034 24.2535L40.9966 24.2535V39.7467H28.5034L28.5034 24.2535Z" fill="#7277A1" stroke="#494D6B" stroke-width="1.50679"/>
<mask id="path-9-inside-1_1_640" fill="white">
<rect x="11.75" y="23.5" width="7" height="17" rx="0.753397"/>
</mask>
<rect x="11.75" y="23.5" width="7" height="17" rx="0.753397" fill="#7277A1" stroke="#494D6B" stroke-width="3.01359" mask="url(#path-9-inside-1_1_640)"/>
</svg>
