<svg width="65" height="64" viewBox="0 0 65 64" fill="none" xmlns="http://www.w3.org/2000/svg">
<g clip-path="url(#clip0_2_700)">
<path fill-rule="evenodd" clip-rule="evenodd" d="M19.8006 39.7646H45.9099C44.4957 39.7646 43.535 36.6398 42.3874 32.9072C40.6855 27.372 37.4728 20.5003 32.8611 20.5003C28.2494 20.5003 25.7401 27.372 23.7189 32.9072C22.3559 36.6398 21.2148 39.7646 19.8006 39.7646Z" fill="#8E94BE" fill-opacity="0.3"/>
<path d="M46.4337 37.5646H52.6917V41.9646H45.9099H19.8006H13.0837V37.5646H19.3325C19.4531 37.3994 19.6163 37.1363 19.8166 36.741C20.3763 35.6368 20.9538 34.0656 21.6523 32.1526L21.6917 32.0448C22.6756 29.35 23.8682 26.0837 25.4357 23.4901C26.9733 20.9459 29.3244 18.3003 32.8611 18.3003C36.3317 18.3003 38.8618 20.859 40.5509 23.4152C42.3086 26.0751 43.6113 29.4019 44.4902 32.2606C45.0794 34.177 45.5638 35.7394 46.0556 36.8343C46.2078 37.1733 46.3357 37.4085 46.4337 37.5646ZM19.1775 37.7496C19.1726 37.7536 19.1701 37.756 19.1701 37.7561C19.1701 37.7563 19.1726 37.7542 19.1775 37.7496Z" stroke="#F2F2F2" stroke-width="4.4"/>
<path d="M19.8006 39.7646H52.6918M19.8006 39.7646H13.0837M19.8006 39.7646H45.9099C44.4957 39.7646 43.535 36.6398 42.3874 32.9072C40.6855 27.372 37.4728 20.5003 32.8611 20.5003C28.2494 20.5003 25.7401 27.372 23.7189 32.9072C22.3559 36.6398 21.2148 39.7646 19.8006 39.7646Z" stroke="#8E94BE" stroke-width="2"/>
<g style="mix-blend-mode:multiply" opacity="0.8">
<path d="M19.5141 20.5003C23.0254 20.5003 24.8529 39.7647 32.5745 39.7647C40.2961 39.7647 41.012 20.5003 44.5233 20.5003C48.0346 20.5003 49.5246 39.7647 56.5108 39.7647H32.5745H8.63817C13.3011 39.7647 16.0028 20.5003 19.5141 20.5003Z" fill="#E00202" fill-opacity="0.7"/>
</g>
<path d="M56.5108 41.2647H61.6309V38.2647H56.5108C55.5436 38.2647 54.533 37.6113 53.4409 35.9356C52.3717 34.295 51.47 32.039 50.6298 29.6372C50.3608 28.868 50.0953 28.0747 49.8329 27.2903C49.3059 25.7153 48.7908 24.1761 48.2825 22.9399C47.8987 22.0065 47.4689 21.1147 46.9651 20.4349C46.4956 19.8015 45.6986 19.0003 44.5233 19.0003C43.3315 19.0003 42.5452 19.8205 42.0918 20.4648C41.6086 21.1514 41.209 22.049 40.8574 22.9808C40.4282 24.1181 39.9915 25.5368 39.5423 26.996C39.2675 27.8886 38.988 28.7963 38.7028 29.6641C37.9157 32.0586 37.0441 34.2974 35.9584 35.9207C34.8731 37.5435 33.7771 38.2647 32.5745 38.2647C31.3501 38.2647 30.1794 37.519 28.9836 35.873C27.7944 34.2361 26.7896 31.9858 25.8646 29.5918C25.5279 28.7204 25.1955 27.8111 24.869 26.918C24.3365 25.4611 23.8197 24.0474 23.3257 22.9119C22.9207 21.9811 22.4736 21.0938 21.9601 20.4194C21.4833 19.7932 20.6818 19.0003 19.5141 19.0003C18.3628 19.0003 17.5494 19.774 17.056 20.3943C16.5216 21.0661 16.0495 21.9515 15.6233 22.8903C14.8891 24.5074 14.1646 26.5765 13.4469 28.626C13.3289 28.9632 13.211 29.2999 13.0932 29.6339C12.2392 32.0574 11.3894 34.3586 10.4876 36.0484C10.0359 36.8947 9.61599 37.5 9.23981 37.876C8.86204 38.2536 8.66907 38.2647 8.63817 38.2647H4.14455V41.2647H8.63817H32.5745H56.5108Z" stroke="#F2F2F2" stroke-width="3"/>
<path d="M8.63817 39.7647C13.3011 39.7647 16.0028 20.5003 19.5141 20.5003C23.0254 20.5003 24.8529 39.7647 32.5745 39.7647M8.63817 39.7647H32.5745M8.63817 39.7647H5.75002M32.5745 39.7647C40.2961 39.7647 41.012 20.5003 44.5233 20.5003C48.0346 20.5003 49.5246 39.7647 56.5108 39.7647M32.5745 39.7647H56.5108M56.5108 39.7647H59.75" stroke="#890202" stroke-width="2"/>
<rect x="12.75" y="44" width="10" height="10" fill="#B90000"/>
<rect x="22.75" y="44" width="10" height="10" fill="#B90000"/>
<rect x="32.75" y="44" width="10" height="10" fill="#B90000"/>
<rect x="42.75" y="44" width="10" height="10" fill="#B90000"/>
<circle cx="27.75" cy="49.0002" r="1.66667" fill="white"/>
<circle cx="37.75" cy="49.0002" r="1.66667" fill="white"/>
</g>
<defs>
<clipPath id="clip0_2_700">
<rect x="0.75" width="64" height="64" rx="8" fill="white"/>
</clipPath>
</defs>
</svg>
