<svg width="66" height="64" viewBox="0 0 66 64" fill="none" xmlns="http://www.w3.org/2000/svg">
<g clip-path="url(#clip0_1_654)">
<path fill-rule="evenodd" clip-rule="evenodd" d="M19.8006 36.7646H45.9099C44.4957 36.7646 43.535 33.6398 42.3874 29.9072C40.6855 24.372 37.4728 17.5003 32.8611 17.5003C28.2494 17.5003 25.7401 24.372 23.7189 29.9072C22.3559 33.6398 21.2148 36.7646 19.8006 36.7646Z" fill="#8E94BE" fill-opacity="0.3"/>
<path d="M46.4337 34.5646H52.6917V38.9646H45.9099H19.8006H13.0837V34.5646H19.3325C19.4531 34.3994 19.6163 34.1363 19.8166 33.741C20.3763 32.6368 20.9538 31.0656 21.6523 29.1526L21.6917 29.0448C22.6756 26.35 23.8682 23.0837 25.4357 20.4901C26.9733 17.9459 29.3244 15.3003 32.8611 15.3003C36.3317 15.3003 38.8618 17.859 40.5509 20.4152C42.3086 23.0751 43.6113 26.4019 44.4902 29.2606C45.0794 31.177 45.5638 32.7394 46.0556 33.8343C46.2078 34.1733 46.3357 34.4085 46.4337 34.5646ZM19.1775 34.7496C19.1726 34.7536 19.1701 34.756 19.1701 34.7561C19.1701 34.7563 19.1726 34.7542 19.1775 34.7496Z" stroke="#F2F2F2" stroke-width="4.4"/>
<path d="M19.8006 36.7646H52.6918M19.8006 36.7646H13.0837M19.8006 36.7646H45.9099C44.4957 36.7646 43.535 33.6398 42.3874 29.9072C40.6855 24.372 37.4728 17.5003 32.8611 17.5003C28.2494 17.5003 25.7401 24.372 23.7189 29.9072C22.3559 33.6398 21.2148 36.7646 19.8006 36.7646Z" stroke="#8E94BE" stroke-width="2"/>
<g style="mix-blend-mode:multiply" opacity="0.8">
<path d="M19.5141 17.5003C23.0254 17.5003 24.8529 36.7647 32.5745 36.7647C40.2961 36.7647 41.012 17.5003 44.5233 17.5003C48.0346 17.5003 49.5246 36.7647 56.5108 36.7647H32.5745H8.63817C13.3011 36.7647 16.0028 17.5003 19.5141 17.5003Z" fill="#878BAE"/>
</g>
<path d="M56.5108 38.2647H61.6309V35.2647H56.5108C55.5436 35.2647 54.533 34.6113 53.4409 32.9356C52.3717 31.295 51.47 29.039 50.6298 26.6372C50.3608 25.868 50.0953 25.0747 49.8329 24.2903C49.3059 22.7153 48.7908 21.1761 48.2825 19.9399C47.8987 19.0065 47.4689 18.1147 46.9651 17.4349C46.4956 16.8015 45.6986 16.0003 44.5233 16.0003C43.3315 16.0003 42.5452 16.8205 42.0918 17.4648C41.6086 18.1514 41.209 19.049 40.8574 19.9808C40.4282 21.1181 39.9915 22.5368 39.5423 23.996C39.2675 24.8886 38.988 25.7963 38.7028 26.6641C37.9157 29.0586 37.0441 31.2974 35.9584 32.9207C34.8731 34.5435 33.7771 35.2647 32.5745 35.2647C31.3501 35.2647 30.1794 34.519 28.9836 32.873C27.7944 31.2361 26.7896 28.9858 25.8646 26.5918C25.5279 25.7204 25.1955 24.8111 24.869 23.918C24.3365 22.4611 23.8197 21.0474 23.3257 19.912C22.9207 18.9811 22.4736 18.0938 21.9601 17.4194C21.4833 16.7932 20.6818 16.0003 19.5141 16.0003C18.3628 16.0003 17.5494 16.774 17.056 17.3943C16.5216 18.0661 16.0495 18.9515 15.6233 19.8903C14.8891 21.5074 14.1646 23.5765 13.4469 25.626C13.3289 25.9632 13.211 26.2999 13.0932 26.6339C12.2392 29.0574 11.3894 31.3586 10.4876 33.0484C10.0359 33.8947 9.61599 34.5 9.23981 34.876C8.86204 35.2536 8.66907 35.2647 8.63817 35.2647H4.14455V38.2647H8.63817H32.5745H56.5108Z" stroke="#F2F2F2" stroke-width="3"/>
<path d="M8.63817 36.7647C13.3011 36.7647 16.0028 17.5003 19.5141 17.5003C23.0254 17.5003 24.8529 36.7647 32.5745 36.7647M8.63817 36.7647H32.5745M8.63817 36.7647H5.75002M32.5745 36.7647C40.2961 36.7647 41.012 17.5003 44.5233 17.5003C48.0346 17.5003 49.5246 36.7647 56.5108 36.7647M32.5745 36.7647H56.5108M56.5108 36.7647H59.75" stroke="#494D6B" stroke-width="2"/>
<rect x="12.75" y="41" width="10" height="10" fill="#35384E"/>
<rect x="22.75" y="41" width="10" height="10" fill="#8E94BE"/>
<rect x="32.75" y="41" width="10" height="10" fill="#B2B8E6"/>
<rect x="42.75" y="41" width="10" height="10" fill="#494D6B"/>
<circle cx="27.75" cy="46.0002" r="1.66667" fill="white"/>
<circle cx="47.75" cy="46.0002" r="1.66667" fill="white"/>
</g>
<defs>
<clipPath id="clip0_1_654">
<rect x="0.75" width="64.494" height="64" rx="8" fill="white"/>
</clipPath>
</defs>
</svg>
