<svg width="65" height="64" viewBox="0 0 65 64" fill="none" xmlns="http://www.w3.org/2000/svg">
<g clip-path="url(#clip0_2_655)">
<g clip-path="url(#clip1_2_655)">
<g opacity="0.5">
<path d="M-0.869995 24.1709L3.96019 21.3822L8.79038 24.1709V29.7484L3.96019 32.5371L-0.869995 29.7484V24.1709Z" fill="#4C5070" stroke="#61668F"/>
<path d="M4.54614 20.4734L5.67063 15.1335L11.0966 14.5528L13.3256 19.5338L9.27717 23.1929L4.54614 20.4734Z" fill="#4C5070" stroke="#61668F"/>
<path d="M52.8296 24.1709L57.6598 21.3822L62.49 24.1709V29.7483L57.6598 32.537L52.8296 29.7483V24.1709Z" fill="#4C5070" stroke="#61668F"/>
<path d="M58.2459 20.4733L59.3704 15.1334L64.7964 14.5528L67.0254 19.5338L62.9769 23.1929L58.2459 20.4733Z" fill="#4C5070" stroke="#61668F"/>
<path opacity="0.5" d="M44.6956 20.8049L50.0258 23.8823V30.037L44.6956 33.1144L39.3655 30.037V23.8823L44.6956 20.8049Z" fill="#949DDB"/>
<path opacity="0.5" d="M17.4604 20.8049L22.7906 23.8823V30.037L17.4604 33.1144L12.1302 30.037V23.8823L17.4604 20.8049Z" fill="#686E99"/>
<path d="M-0.869995 44.6559L3.96019 47.4446L8.79038 44.6559V39.0785L3.96019 36.2897L-0.869995 39.0785V44.6559Z" fill="#4C5070" stroke="#61668F"/>
<path d="M4.54614 48.3535L5.67063 53.6933L11.0966 54.274L13.3256 49.293L9.27717 45.6339L4.54614 48.3535Z" fill="#4C5070" stroke="#61668F"/>
<path d="M52.8296 44.656L57.6598 47.4447L62.49 44.656V39.0786L57.6598 36.2899L52.8296 39.0786V44.656Z" fill="#4C5070" stroke="#61668F"/>
<path d="M58.2459 48.3536L59.3704 53.6935L64.7964 54.2741L67.0254 49.2931L62.9769 45.634L58.2459 48.3536Z" fill="#4C5070" stroke="#61668F"/>
<path opacity="0.5" d="M44.6956 48.0219L50.0258 44.9446V38.7898L44.6956 35.7124L39.3655 38.7898V44.9446L44.6956 48.0219Z" fill="#949DDB"/>
<path opacity="0.5" d="M17.4604 48.0219L22.7906 44.9446V38.7898L17.4604 35.7124L12.1302 38.7898V44.9446L17.4604 48.0219Z" fill="#686E99"/>
</g>
<path d="M25.5943 24.1709L30.4245 21.3822L35.2547 24.1709V29.7483L30.4245 32.537L25.5943 29.7483V24.1709Z" fill="#767CAD" stroke="#AEAFD1"/>
<path d="M30.5353 21.4468L31.6597 16.1069L37.0858 15.5263L39.3147 20.5073L35.2663 24.1663L30.5353 21.4468Z" fill="#767CAD" stroke="#AEAFD1"/>
<path d="M25.5943 44.6561L30.4245 47.4448L35.2547 44.6561V39.0786L30.4245 36.2899L25.5943 39.0786V44.6561Z" fill="#B90000" stroke="#890202"/>
<path d="M30.3141 47.6125L31.4386 52.9523L36.8646 53.533L39.0936 48.552L35.0452 44.8929L30.3141 47.6125Z" fill="#B90000" stroke="#890202"/>
</g>
</g>
<defs>
<clipPath id="clip0_2_655">
<rect x="0.75" width="64" height="64" rx="8" fill="white"/>
</clipPath>
<clipPath id="clip1_2_655">
<rect width="52" height="41" fill="white" transform="translate(6.75 14)"/>
</clipPath>
</defs>
</svg>
