<svg width="66" height="64" viewBox="0 0 66 64" fill="none" xmlns="http://www.w3.org/2000/svg">
<g clip-path="url(#clip0_1_653)">
<g clip-path="url(#clip1_1_653)">
<g opacity="0.5">
<path d="M-0.869965 22.1709L3.96022 19.3822L8.79041 22.1709V27.7484L3.96022 30.5371L-0.869965 27.7484V22.1709Z" fill="#4C5070" stroke="#61668F"/>
<path d="M4.54617 18.4734L5.67066 13.1335L11.0967 12.5528L13.3256 17.5338L9.2772 21.1929L4.54617 18.4734Z" fill="#4C5070" stroke="#61668F"/>
<path d="M52.8296 22.1709L57.6598 19.3822L62.49 22.1709V27.7483L57.6598 30.537L52.8296 27.7483V22.1709Z" fill="#4C5070" stroke="#61668F"/>
<path d="M58.2459 18.4733L59.3704 13.1334L64.7964 12.5528L67.0254 17.5338L62.977 21.1929L58.2459 18.4733Z" fill="#4C5070" stroke="#61668F"/>
<path opacity="0.5" d="M44.6957 18.8049L50.0259 21.8823V28.037L44.6957 31.1144L39.3655 28.037V21.8823L44.6957 18.8049Z" fill="#949DDB"/>
<path opacity="0.5" d="M17.4605 18.8049L22.7907 21.8823V28.037L17.4605 31.1144L12.1303 28.037V21.8823L17.4605 18.8049Z" fill="#686E99"/>
<path d="M-0.869965 42.6559L3.96022 45.4446L8.79041 42.6559V37.0785L3.96022 34.2898L-0.869965 37.0785V42.6559Z" fill="#4C5070" stroke="#61668F"/>
<path d="M4.54617 46.3535L5.67066 51.6933L11.0967 52.274L13.3256 47.293L9.2772 43.6339L4.54617 46.3535Z" fill="#4C5070" stroke="#61668F"/>
<path d="M52.8296 42.656L57.6598 45.4447L62.49 42.656V37.0786L57.6598 34.2899L52.8296 37.0786V42.656Z" fill="#4C5070" stroke="#61668F"/>
<path d="M58.2459 46.3536L59.3704 51.6935L64.7964 52.2741L67.0254 47.2931L62.977 43.634L58.2459 46.3536Z" fill="#4C5070" stroke="#61668F"/>
<path opacity="0.5" d="M44.6957 46.0219L50.0259 42.9446V36.7898L44.6957 33.7124L39.3655 36.7898V42.9446L44.6957 46.0219Z" fill="#949DDB"/>
<path opacity="0.5" d="M17.4605 46.0219L22.7907 42.9446V36.7898L17.4605 33.7124L12.1303 36.7898V42.9446L17.4605 46.0219Z" fill="#686E99"/>
</g>
<path d="M25.5944 22.1709L30.4245 19.3822L35.2547 22.1709V27.7483L30.4245 30.537L25.5944 27.7483V22.1709Z" fill="#767CAD" stroke="#AEAFD1"/>
<path d="M30.5353 19.4468L31.6598 14.1069L37.0858 13.5263L39.3147 18.5073L35.2663 22.1663L30.5353 19.4468Z" fill="#767CAD" stroke="#AEAFD1"/>
<path d="M25.5944 42.6561L30.4245 45.4448L35.2547 42.6561V37.0786L30.4245 34.2899L25.5944 37.0786V42.6561Z" fill="#4C5070" stroke="#61668F"/>
<path d="M30.3142 45.6125L31.4386 50.9523L36.8647 51.533L39.0936 46.552L35.0452 42.8929L30.3142 45.6125Z" fill="#4C5070" stroke="#61668F"/>
</g>
</g>
<defs>
<clipPath id="clip0_1_653">
<rect x="0.750031" width="64.494" height="64" rx="8" fill="white"/>
</clipPath>
<clipPath id="clip1_1_653">
<rect width="52" height="41" fill="white" transform="translate(6.75003 12)"/>
</clipPath>
</defs>
</svg>
