<svg width="83" height="126" viewBox="0 0 83 126" fill="none" xmlns="http://www.w3.org/2000/svg">
<path d="M56.5492 34.0234C60.2809 35.765 64.2481 37.7655 67.9457 40.1358C69.7516 41.2953 71.4975 42.5445 73.1156 43.8994C78.8284 48.6739 82.9961 54.7352 83.0004 62.6699C82.9576 70.8679 78.5635 77.1077 72.3597 82.0733C70.6819 83.4154 68.8721 84.6689 66.9808 85.8369C61.6437 89.1374 55.6528 91.8047 50.1449 94.1367C49.5941 94.3703 49.052 94.6001 48.514 94.8252C46.4817 95.679 44.5346 96.4899 42.7328 97.2715C42.101 97.539 41.4651 97.807 40.8334 98.0703C40.2783 98.3039 39.7269 98.5333 39.1761 98.7627C32.8357 101.409 26.5247 104.026 20.6625 107.594C20.2185 107.874 19.7404 108.108 19.2709 108.35C13.699 111.085 8.06729 114.607 5.11266 120.23C4.35269 121.653 3.79748 123.204 3.43883 124.835C3.38334 125.077 3.02467 125.043 3.01598 124.793C2.94339 123.094 3.11878 121.356 3.52867 119.645C5.27497 112.767 10.6211 107.47 16.1205 103.299C20.9835 100.27 26.2225 97.8236 31.5082 95.5469C32.046 95.3133 32.5837 95.0838 33.1214 94.8545C35.5637 93.8181 38.015 92.8069 40.4359 91.7832C40.5554 91.7323 40.6754 91.6773 40.7992 91.6221C41.3242 91.3928 41.8702 91.1587 42.4379 90.9209C45.8962 89.4512 50.0509 87.7866 54.265 85.8369H46.7338V82.0733H61.6566C69.6365 77.5282 76.3697 71.7044 76.9759 63.9609H51.0033V60.2022H76.805C75.5967 52.9088 69.4394 47.8073 62.6976 43.8994H46.7338V40.1358H55.474C54.4578 39.643 53.4626 39.1713 52.5062 38.7168C51.362 38.1943 50.2133 37.6848 49.0648 37.1836L56.5492 34.0234ZM28.4964 28.1367H28.4916L28.4935 28.1348L28.4964 28.1367ZM3.0277 0.203134C3.04068 -0.0430664 3.39932 -0.0770124 3.45055 0.165048C5.18833 8.18471 12.1775 13.2264 19.3207 16.6543C24.6619 19.8953 30.3018 22.5127 36.0316 24.9551L28.4935 28.1348C24.3187 26.2364 20.1862 24.1726 16.1351 21.752C9.25246 16.6929 2.51961 9.14878 3.0277 0.203134Z" fill="#FF1414"/>
<path d="M54.8721 98.0344C58.9229 99.8858 62.9358 101.903 66.8672 104.251C73.7481 109.309 80.4839 116.854 79.9717 125.797C79.9588 126.043 79.6 126.077 79.5488 125.835C77.8115 117.818 70.8239 112.778 63.6826 109.351C59.9262 107.071 51.9058 103.343 47.2617 101.249L54.8721 98.0344ZM79.5449 1.16527C79.5961 0.923243 79.954 0.956767 79.9668 1.20726C80.0394 2.90569 79.8599 4.64224 79.4502 6.35765C77.7044 13.2325 72.3602 18.5286 66.8623 22.6985C62.0005 25.726 56.7628 28.1715 51.4785 30.4475C50.9407 30.681 50.403 30.9106 49.8652 31.1399C47.4237 32.1759 44.9739 33.1869 42.5537 34.2102C42.4342 34.2611 42.3142 34.3161 42.1904 34.3713C41.6656 34.6006 41.1193 34.8338 40.5518 35.0715C37.0986 36.5365 32.945 38.2016 28.7363 40.1506H36.2617V43.9123H21.3467C14.0005 48.095 7.7089 53.3609 6.2832 60.2102H31.8174V63.968H5.99707C6.41111 72.2355 13.0061 77.8494 20.2881 82.0745H36.2617V85.8371H27.5107C28.5309 86.3297 29.5302 86.8047 30.4863 87.259C31.4425 87.6964 32.7612 88.2744 34.0332 88.8264L26.5244 91.9895C22.7682 90.24 18.764 88.2277 15.042 85.8371C13.2322 84.6779 11.4908 83.4247 9.87305 82.0745C4.32401 77.429 0.234658 71.5774 0.0126953 63.968C0.00416937 63.7516 5.02301e-06 63.5353 0 63.3147C0.00426856 62.2446 0.0853378 61.2123 0.230469 60.2102C1.21651 53.5137 5.24579 48.2309 10.6455 43.9123C12.323 42.5663 14.1335 41.3184 16.0244 40.1506C21.3601 36.8513 27.3446 34.1889 32.8467 31.8577C33.3973 31.6241 33.9397 31.3942 34.4775 31.1692C36.5092 30.3157 38.4556 29.5051 40.2568 28.7239C40.8886 28.4563 41.5245 28.1883 42.1562 27.925C42.7111 27.6915 43.2619 27.4619 43.8125 27.2327C50.1512 24.5872 56.4606 21.9714 62.3213 18.4045C62.7651 18.1244 63.2435 17.8906 63.7129 17.6487C69.2832 14.9141 74.9134 11.3937 77.8672 5.77172C78.6311 4.34515 79.1864 2.79559 79.5449 1.16527Z" fill="#FF1414"/>
</svg>
