<svg width="139" height="60" viewBox="0 0 139 60" fill="none" xmlns="http://www.w3.org/2000/svg">
<path d="M31.9898 20.6965C29.038 20.6965 27.0251 22.1969 27.0251 24.5635C27.0251 30.2317 39.5729 27.2309 39.5729 35.4669C39.5729 38.8337 36.621 41.1026 31.9918 41.1026C27.8986 41.1026 25.2822 39.6348 24.0078 38.5694L25.317 36.9348C26.3562 37.8009 28.3691 39.2688 31.9939 39.2688C35.4162 39.2688 37.4966 37.7359 37.4966 35.4669C37.4966 28.9326 24.9161 32.2323 24.9161 24.598C24.9161 21.1641 27.8351 18.8627 31.9959 18.8627C37.3963 18.8627 38.8405 22.1644 39.3765 23.797L37.3636 24.2971C37.0608 23.1627 35.7189 20.6965 31.9959 20.6965H31.9898Z" fill="#2F2F2F"/>
<path d="M61.0771 25.8322L59.0642 26.1657C59.0642 24.4985 57.6548 20.6966 52.9581 20.6966C48.6295 20.6966 45.242 24.1305 45.242 30.0001C45.242 36.2356 48.8996 39.2689 53.4286 39.2689C56.8161 39.2689 58.964 37.2358 59.9704 35.8676L61.2796 37.1687C60.5411 38.169 58.0925 41.1028 53.361 41.1028C47.2897 41.1028 43.1289 37.002 43.1289 30.0001C43.1289 22.9981 47.2222 18.8628 52.9253 18.8628C59.0642 18.8628 61.0096 23.4637 61.0771 25.8322Z" fill="#2F2F2F"/>
<path d="M82.0437 41.003C82.0437 41.003 81.473 41.1027 80.7693 41.1027C75.1337 41.1027 76.6433 32.2669 70.5372 32.2669H67.8206V40.936H65.7402V19.064H72.1819C76.9788 19.064 79.8979 21.3309 79.8979 25.7325C79.8979 29.0342 77.6845 31.167 74.4975 31.9334C77.8196 33.2 78.0875 39.403 81.3421 39.403C81.6776 39.403 81.878 39.3359 81.878 39.3359L82.0458 41.003H82.0437ZM71.8116 30.5997C75.1991 30.5997 77.7827 28.8655 77.7827 25.7325C77.7827 22.5995 75.6348 20.8653 72.0796 20.8653H67.8186V30.6018H71.8116V30.5997Z" fill="#2F2F2F"/>
<path d="M139.008 40.9359H136.592L126.159 25.0656C125.454 23.9311 124.382 22.0973 124.247 21.8309L124.112 21.898C124.179 22.1643 124.247 23.4981 124.247 24.8663L124.314 40.9379H122.201V19.0659H124.617L135.05 35.0379C136.056 36.6379 136.627 37.6728 136.928 38.238L137.095 38.1709C137.063 37.8049 136.928 36.5363 136.928 35.17L136.895 19.0659H139.008V40.9379V40.9359Z" fill="#2F2F2F"/>
<path d="M103.882 16.0974C103.463 16.2743 103.043 16.4491 102.63 16.6219C103.99 17.1871 105.349 17.7666 106.701 18.3826C107.159 18.6 107.635 18.8256 108.122 19.0613H103.936V20.8631H111.584C114.814 22.7335 117.764 25.1751 118.343 28.6658H105.98V30.4656H118.424C118.133 34.1717 114.908 36.9592 111.085 39.1346H103.936V40.9353H107.544C105.525 41.8685 103.534 42.6655 101.877 43.3689C101.605 43.4828 101.343 43.5951 101.092 43.7049C101.033 43.7313 100.975 43.7576 100.918 43.782C99.7582 44.2719 98.584 44.7557 97.4141 45.2517C97.1563 45.3615 96.8984 45.472 96.6406 45.5838C94.1083 46.6735 91.5984 47.8442 89.2686 49.2937C86.6338 51.2902 84.072 53.8254 83.2354 57.117C83.039 57.9362 82.9555 58.7677 82.9902 59.5808C82.9943 59.7008 83.1658 59.7172 83.1924 59.6014C83.3642 58.8207 83.63 58.0783 83.9941 57.3973C85.4097 54.7056 88.1079 53.02 90.7773 51.7107C91.0022 51.5949 91.2317 51.4835 91.4443 51.3494C94.2529 49.6416 97.2768 48.3894 100.314 47.1228C100.578 47.0131 100.842 46.9026 101.108 46.7908C101.411 46.6648 101.716 46.537 102.019 46.409C102.882 46.0349 103.814 45.6467 104.788 45.2381C105.046 45.1303 105.305 45.0198 105.569 44.908C108.208 43.7918 111.079 42.515 113.636 40.9353C114.542 40.3763 115.409 39.7769 116.213 39.1346C119.185 36.7579 121.29 33.7712 121.311 29.8474C121.309 26.0497 119.312 23.1482 116.575 20.8631C115.8 20.2145 114.963 19.6163 114.098 19.0613C112.077 17.7664 109.888 16.7035 107.892 15.7928C107.362 15.5488 106.828 15.3126 106.294 15.0808C105.486 15.4265 104.682 15.764 103.882 16.0974ZM83.1826 0.0788914C83.1581 -0.0369948 82.9856 -0.0204732 82.9795 0.0974461C82.7342 4.37896 85.9623 7.99153 89.2598 10.4129C91.9047 11.9905 94.6232 13.2554 97.3643 14.4285C97.7283 14.276 98.0866 14.1257 98.4404 13.9773C99.2259 13.648 99.971 13.3371 100.677 13.0301C100.795 12.9793 100.914 12.9304 101.032 12.8816C97.5221 11.4321 94.0385 9.94346 90.7861 7.97147C87.3639 6.33079 84.0152 3.91727 83.1826 0.0788914Z" fill="#FF1414"/>
<path d="M104.497 46.0225C103.711 46.3518 102.966 46.6627 102.26 46.9697C102.142 47.0205 102.023 47.0694 101.905 47.1182C105.415 48.5677 108.898 50.0563 112.151 52.0283C115.573 53.669 118.922 56.0824 119.754 59.9209C119.779 60.0368 119.951 60.0202 119.958 59.9023C120.203 55.6209 116.975 52.0083 113.677 49.5869C111.032 48.0093 108.314 46.7443 105.573 45.5713C105.209 45.7237 104.85 45.8741 104.497 46.0225ZM119.949 0.416983C119.943 0.297031 119.771 0.280589 119.747 0.396476C119.575 1.17709 119.309 1.91949 118.943 2.60253C117.527 5.29417 114.829 6.97979 112.16 8.28905C111.935 8.4049 111.705 8.51626 111.493 8.65038C108.684 10.3582 105.66 11.6103 102.623 12.8769C102.359 12.9867 102.095 13.0972 101.829 13.209C101.526 13.335 101.221 13.4628 100.918 13.5908C100.055 13.9649 99.1226 14.3531 98.149 14.7617C97.8912 14.8695 97.6316 14.98 97.3677 15.0918C94.7311 16.2079 91.8631 17.4819 89.3062 19.0615C88.4 19.6206 87.532 20.2188 86.7281 20.8633C84.1405 22.9308 82.2094 25.46 81.7369 28.666C81.6673 29.1458 81.6286 29.6401 81.6265 30.1523C81.6265 30.2581 81.6283 30.3621 81.6324 30.4658C81.7388 34.109 83.6987 36.9106 86.3579 39.1348C87.1332 39.7813 87.9682 40.3805 88.8355 40.9355C90.8564 42.2326 93.047 43.2962 95.0454 44.207C95.5752 44.451 96.1093 44.6872 96.6431 44.9189C97.4511 44.5733 98.2554 44.2358 99.0552 43.9023C99.4746 43.7255 99.894 43.5507 100.307 43.3779C98.9468 42.8127 97.588 42.2332 96.2359 41.6172C95.7778 41.3997 95.2989 41.1713 94.8101 40.9355H99.0044V39.1348H91.3492C87.8595 37.1119 84.699 34.4241 84.5005 30.4658H96.8745V28.666H84.6372C85.3205 25.3867 88.3365 22.8658 91.857 20.8633H99.0044V19.0615H95.398C97.4148 18.1284 99.4053 17.3322 101.06 16.6308C101.332 16.517 101.594 16.4047 101.845 16.2949C101.905 16.2685 101.962 16.2421 102.019 16.2178C103.179 15.7279 104.353 15.244 105.523 14.748C105.781 14.6383 106.039 14.5278 106.296 14.416C108.829 13.3263 111.34 12.1556 113.669 10.706C116.304 8.7096 118.865 6.17422 119.702 2.8828C119.898 2.06159 119.983 1.23007 119.949 0.416983Z" fill="#FF1414"/>
<path d="M1.5597 21.7665C0.693604 21.7665 -0.0078125 21.0996 -0.0078125 20.2335C-0.0078125 19.3674 0.691571 18.666 1.5597 18.666C2.42783 18.666 3.15974 19.3329 3.15974 20.2335C3.15974 21.1342 2.4258 21.7665 1.5597 21.7665ZM0.494361 25.3346L2.52745 25.2675V40.9385H0.494361V25.3346Z" fill="#2F2F2F"/>
<path d="M21.7668 43.1056C21.7668 45.9398 19.2986 47.9078 13.8642 47.9078C8.72857 47.9078 5.99609 46.2407 5.99609 43.5407C5.99609 41.841 7.06347 40.6395 8.86275 40.0072C7.76285 39.5396 7.06143 38.7406 7.06143 37.4394C7.06143 36.1382 8.12881 35.205 9.32833 34.9062C8.12881 33.9059 7.42739 32.4726 7.42739 30.7383C7.42739 27.4041 9.96062 25.1697 13.7625 25.1697C15.5638 25.1697 17.0642 25.6373 18.1641 26.5034C19.4308 26.0704 19.9309 24.7692 19.9309 23.1021L21.6977 23.468C21.6977 26.0358 19.998 27.1682 18.9977 27.3024C19.7317 28.2031 20.1647 29.3701 20.1647 30.7363C20.1647 34.0706 17.6315 36.3049 13.7971 36.3049C12.6626 36.3049 11.6623 36.1057 10.7962 35.7377C9.62923 35.9044 8.89528 36.4046 8.89528 37.2056C8.89528 38.5068 10.2961 38.8056 12.5955 38.8056H15.9969C19.5975 38.8056 21.7647 40.3732 21.7647 43.1077L21.7668 43.1056ZM19.7662 43.1056C19.7662 41.3043 18.3654 40.5378 15.6655 40.5378H12.0649C9.26327 40.5378 7.99666 41.7048 7.99666 43.2723C7.99666 45.1733 9.96469 46.1736 13.8642 46.1736C17.7636 46.1736 19.7662 45.2058 19.7662 43.1056ZM9.46251 30.7363C9.46251 33.0703 11.1622 34.6378 13.7645 34.6378C16.3669 34.6378 18.1316 33.0703 18.1316 30.7363C18.1316 28.4023 16.3974 26.8348 13.7971 26.8348C11.1967 26.8348 9.46251 28.4023 9.46251 30.7363Z" fill="#2F2F2F"/>
</svg>
