<svg width="139" height="60" viewBox="0 0 139 60" fill="none" xmlns="http://www.w3.org/2000/svg">
<path d="M1.55775 21.7631C0.69165 21.7631 -0.00976562 21.0962 -0.00976562 20.2301C-0.00976562 19.364 0.689617 18.6626 1.55775 18.6626C2.42588 18.6626 3.15779 19.3294 3.15779 20.2301C3.15779 21.1308 2.42384 21.7631 1.55775 21.7631ZM0.492408 25.3311L2.5255 25.264V40.9351H0.492408V25.3311Z" fill="white"/>
<path d="M21.7648 43.1022C21.7648 45.9363 19.2967 47.9044 13.8622 47.9044C8.72661 47.9044 5.99414 46.2372 5.99414 43.5373C5.99414 41.8376 7.06151 40.6361 8.8608 40.0038C7.7609 39.5362 7.05948 38.7372 7.05948 37.436C7.05948 36.1348 8.12685 35.2016 9.32638 34.9028C8.12685 33.9025 7.42544 32.4691 7.42544 30.7349C7.42544 27.4007 9.95867 25.1663 13.7605 25.1663C15.5619 25.1663 17.0623 25.6339 18.1622 26.5C19.4288 26.0669 19.9289 24.7658 19.9289 23.0986L21.6957 23.4646C21.6957 26.0324 19.996 27.1648 18.9958 27.299C19.7297 28.1997 20.1628 29.3666 20.1628 30.7329C20.1628 34.0672 17.6295 36.3015 13.7951 36.3015C12.6606 36.3015 11.6604 36.1023 10.7943 35.7343C9.62727 35.901 8.89333 36.4011 8.89333 37.2022C8.89333 38.5034 10.2941 38.8022 12.5936 38.8022H15.9949C19.5955 38.8022 21.7628 40.3697 21.7628 43.1042L21.7648 43.1022ZM19.7643 43.1022C19.7643 41.3009 18.3635 40.5344 15.6635 40.5344H12.0629C9.26132 40.5344 7.9947 41.7014 7.9947 43.2689C7.9947 45.1699 9.96273 46.1701 13.8622 46.1701C17.7617 46.1701 19.7643 45.2024 19.7643 43.1022ZM9.46056 30.7329C9.46056 33.0669 11.1602 34.6344 13.7626 34.6344C16.3649 34.6344 18.1297 33.0669 18.1297 30.7329C18.1297 28.3989 16.3954 26.8314 13.7951 26.8314C11.1948 26.8314 9.46056 28.3989 9.46056 30.7329Z" fill="white"/>
<path d="M31.9917 20.6965C29.0399 20.6965 27.027 22.1969 27.027 24.5635C27.027 30.2317 39.5748 27.2309 39.5748 35.4669C39.5748 38.8337 36.623 41.1026 31.9938 41.1026C27.9005 41.1026 25.2842 39.6348 24.0098 38.5694L25.319 36.9348C26.3581 37.8009 28.371 39.2688 31.9958 39.2688C35.4181 39.2688 37.4985 37.7359 37.4985 35.4669C37.4985 28.9326 24.918 32.2323 24.918 24.598C24.918 21.1641 27.8371 18.8627 31.9979 18.8627C37.3983 18.8627 38.8425 22.1644 39.3784 23.797L37.3656 24.2971C37.0628 23.1627 35.7209 20.6965 31.9979 20.6965H31.9917Z" fill="white"/>
<path d="M61.079 25.8322L59.0662 26.1657C59.0662 24.4985 57.6567 20.6966 52.96 20.6966C48.6315 20.6966 45.244 24.1305 45.244 30.0001C45.244 36.2356 48.9015 39.2689 53.4305 39.2689C56.818 39.2689 58.9659 37.2358 59.9724 35.8676L61.2816 37.1687C60.5431 38.169 58.0945 41.1028 53.363 41.1028C47.2916 41.1028 43.1309 37.002 43.1309 30.0001C43.1309 22.9981 47.2241 18.8628 52.9273 18.8628C59.0662 18.8628 61.0115 23.4637 61.079 25.8322Z" fill="white"/>
<path d="M82.0457 41.003C82.0457 41.003 81.475 41.1027 80.7713 41.1027C75.1356 41.1027 76.6453 32.2669 70.5391 32.2669H67.8226V40.936H65.7422V19.064H72.1838C76.9808 19.064 79.8999 21.3309 79.8999 25.7325C79.8999 29.0342 77.6865 31.167 74.4994 31.9334C77.8215 33.2 78.0895 39.403 81.3441 39.403C81.6795 39.403 81.88 39.3359 81.88 39.3359L82.0477 41.003H82.0457ZM71.8136 30.5997C75.2011 30.5997 77.7847 28.8655 77.7847 25.7325C77.7847 22.5995 75.6368 20.8653 72.0815 20.8653H67.8205V30.6018H71.8136V30.5997Z" fill="white"/>
<path d="M139.01 40.9359H136.594L126.161 25.0656C125.456 23.9311 124.384 22.0973 124.249 21.8309L124.114 21.898C124.181 22.1643 124.249 23.4981 124.249 24.8663L124.316 40.9379H122.203V19.0659H124.619L135.052 35.0379C136.058 36.6379 136.629 37.6728 136.929 38.238L137.097 38.1709C137.064 37.8049 136.929 36.5363 136.929 35.17L136.897 19.0659H139.01V40.9379V40.9359Z" fill="white"/>
<path d="M103.882 16.0974C103.463 16.2743 103.043 16.4491 102.63 16.6219C103.99 17.1871 105.349 17.7666 106.701 18.3826C107.159 18.6 107.635 18.8256 108.122 19.0613H103.936V20.8631H111.584C114.814 22.7335 117.764 25.1751 118.343 28.6658H105.98V30.4656H118.424C118.133 34.1717 114.908 36.9592 111.085 39.1346H103.936V40.9353H107.544C105.525 41.8685 103.534 42.6655 101.877 43.3689C101.605 43.4828 101.343 43.5951 101.092 43.7049C101.033 43.7313 100.975 43.7576 100.918 43.782C99.7582 44.2719 98.584 44.7557 97.4141 45.2517C97.1563 45.3615 96.8984 45.472 96.6406 45.5838C94.1083 46.6735 91.5984 47.8442 89.2686 49.2937C86.6338 51.2902 84.072 53.8254 83.2354 57.117C83.039 57.9362 82.9555 58.7677 82.9902 59.5808C82.9943 59.7008 83.1658 59.7172 83.1924 59.6014C83.3642 58.8207 83.63 58.0783 83.9941 57.3973C85.4097 54.7056 88.1079 53.02 90.7773 51.7107C91.0022 51.5949 91.2317 51.4835 91.4443 51.3494C94.2529 49.6416 97.2768 48.3894 100.314 47.1228C100.578 47.0131 100.842 46.9026 101.108 46.7908C101.411 46.6648 101.716 46.537 102.019 46.409C102.882 46.0349 103.814 45.6467 104.788 45.2381C105.046 45.1303 105.305 45.0198 105.569 44.908C108.208 43.7918 111.079 42.515 113.636 40.9353C114.542 40.3763 115.409 39.7769 116.213 39.1346C119.185 36.7579 121.29 33.7712 121.311 29.8474C121.309 26.0497 119.312 23.1482 116.575 20.8631C115.8 20.2145 114.963 19.6163 114.098 19.0613C112.077 17.7664 109.888 16.7035 107.892 15.7928C107.362 15.5488 106.828 15.3126 106.294 15.0808C105.486 15.4265 104.682 15.764 103.882 16.0974ZM83.1826 0.0788914C83.1581 -0.0369948 82.9856 -0.0204732 82.9795 0.0974461C82.7342 4.37896 85.9623 7.99153 89.2598 10.4129C91.9047 11.9905 94.6232 13.2554 97.3643 14.4285C97.7283 14.276 98.0866 14.1257 98.4404 13.9773C99.2259 13.648 99.971 13.3371 100.677 13.0301C100.795 12.9793 100.914 12.9304 101.032 12.8816C97.5221 11.4321 94.0385 9.94346 90.7861 7.97147C87.3639 6.33079 84.0152 3.91727 83.1826 0.0788914Z" fill="#FF1414"/>
<path d="M104.495 46.0228C103.709 46.3521 102.965 46.6632 102.259 46.9701C102.141 47.0209 102.021 47.0697 101.903 47.1185C105.413 48.5681 108.897 50.0566 112.15 52.0287C115.572 53.6694 118.921 56.0829 119.753 59.9213C119.778 60.0366 119.949 60.0203 119.956 59.9027C120.201 55.621 116.973 52.0077 113.675 49.5863C111.03 48.0087 108.312 46.7447 105.571 45.5717C105.207 45.7241 104.848 45.8744 104.495 46.0228ZM119.948 0.416389C119.942 0.296615 119.769 0.280258 119.745 0.395881C119.573 1.17658 119.307 1.91883 118.941 2.60194C117.525 5.29375 114.827 6.97915 112.158 8.28846C111.933 8.40434 111.703 8.51659 111.491 8.65076C108.682 10.3584 105.659 11.6108 102.622 12.8773C102.358 12.9871 102.094 13.0966 101.828 13.2084C101.525 13.3344 101.22 13.4631 100.917 13.5912C100.054 13.9652 99.1216 14.3535 98.148 14.7621C97.8902 14.8698 97.6296 14.9794 97.3657 15.0912C94.729 16.2073 91.8612 17.4822 89.3042 19.0619C88.398 19.621 87.531 20.2192 86.7271 20.8637C84.1394 22.9313 82.2084 25.4602 81.7359 28.6664C81.6663 29.1462 81.6276 29.6404 81.6255 30.1527C81.6255 30.2582 81.6273 30.3617 81.6314 30.4652C81.7377 34.1085 83.6977 36.9109 86.357 39.1351C87.132 39.7815 87.9664 40.381 88.8335 40.9359C90.8546 42.233 93.0459 43.2966 95.0445 44.2074C95.5742 44.4514 96.1083 44.6876 96.6421 44.9193C97.4499 44.5738 98.2536 44.2361 99.0532 43.9027C99.4725 43.7259 99.8921 43.5501 100.305 43.3773C98.9451 42.8122 97.5868 42.2335 96.2349 41.6176C95.7767 41.4 95.298 41.1718 94.8091 40.9359H99.0025V39.1351H91.3482C87.8584 37.1122 84.698 34.4236 84.4995 30.4652H96.8736V28.6664H84.6362C85.3195 25.3871 88.3346 22.8662 91.855 20.8637H99.0025V19.0619H95.396C97.4129 18.1287 99.4033 17.3317 101.058 16.6303C101.33 16.5164 101.593 16.4051 101.844 16.2953C101.904 16.2689 101.961 16.2425 102.018 16.2181C103.178 15.7282 104.352 15.2435 105.522 14.7474C105.78 14.6377 106.038 14.5282 106.295 14.4164C108.828 13.3267 111.338 12.1559 113.668 10.7064C116.302 8.70993 118.863 6.17378 119.7 2.88221C119.896 2.06095 119.983 1.22951 119.948 0.416389Z" fill="#FF1414"/>
</svg>
