<svg width="141" height="60" viewBox="0 0 141 60" fill="none" xmlns="http://www.w3.org/2000/svg">
<path d="M31.982 21.8338C29.0302 21.8338 27.0173 23.3343 27.0173 25.7008C27.0173 31.369 39.565 28.3682 39.565 36.6043C39.565 39.971 36.6132 42.24 31.984 42.24C27.8908 42.24 25.2744 40.7721 24 39.7068L25.3092 38.0721C26.3484 38.9382 28.3612 40.4061 31.9861 40.4061C35.4084 40.4061 37.4887 38.8732 37.4887 36.6043C37.4887 30.0699 24.9083 33.3696 24.9083 25.7353C24.9083 22.3015 27.8273 20 31.9881 20C37.3885 20 38.8327 23.3017 39.3687 24.9343L37.3558 25.4345C37.053 24.3 35.7111 21.8338 31.9881 21.8338H31.982Z" fill="#2F2F2F"/>
<path d="M60.9482 26.9694L58.9353 27.3029C58.9353 25.6357 57.5259 21.8338 52.8292 21.8338C48.5006 21.8338 45.1131 25.2677 45.1131 31.1373C45.1131 37.3728 48.7707 40.4061 53.2996 40.4061C56.6872 40.4061 58.8351 38.373 59.8415 37.0048L61.1507 38.306C60.4122 39.3062 57.9636 42.24 53.2321 42.24C47.1608 42.24 43 38.1392 43 31.1373C43 24.1353 47.0933 20 52.7964 20C58.9353 20 60.8807 24.6009 60.9482 26.9694Z" fill="#2F2F2F"/>
<path d="M82.3035 41.9391C82.3035 41.9391 81.7328 42.0387 81.0291 42.0387C75.3934 42.0387 76.9031 33.2029 70.797 33.2029H68.0804V41.872H66V20H72.4416C77.2386 20 80.1577 22.2669 80.1577 26.6685C80.1577 29.9703 77.9443 32.103 74.7573 32.8695C78.0793 34.1361 78.3473 40.339 81.6019 40.339C81.9373 40.339 82.1378 40.2719 82.1378 40.2719L82.3056 41.9391H82.3035ZM72.0714 31.5358C75.4589 31.5358 78.0425 29.8015 78.0425 26.6685C78.0425 23.5355 75.8946 21.8013 72.3393 21.8013H68.0783V31.5378H72.0714V31.5358Z" fill="#2F2F2F"/>
<path d="M140.807 41.87H138.391L127.958 25.9997C127.253 24.8652 126.181 23.0313 126.046 22.765L125.911 22.8321C125.978 23.0984 126.046 24.4321 126.046 25.8004L126.113 41.872H124V20H126.416L136.848 35.972C137.855 37.572 138.426 38.6068 138.726 39.172L138.894 39.105C138.861 38.739 138.726 37.4704 138.726 36.1041L138.694 20H140.807V41.872V41.87Z" fill="#2F2F2F"/>
<path d="M109.106 16.0521C110.925 16.8933 112.858 17.8594 114.661 19.0042C115.541 19.5644 116.393 20.168 117.182 20.8226C119.967 23.129 121.998 26.0571 122 29.89C121.98 33.8503 119.837 36.8643 116.813 39.263C115.995 39.9114 115.113 40.5171 114.191 41.0814C111.589 42.6757 108.669 43.9647 105.984 45.0912C105.715 45.204 105.45 45.3144 105.188 45.4232C104.197 45.8356 103.248 46.2283 102.37 46.6058C102.062 46.735 101.752 46.8644 101.444 46.9916C101.173 47.1044 100.905 47.2148 100.636 47.3255C97.5453 48.6039 94.4687 49.8685 91.6108 51.5921C91.3944 51.7275 91.161 51.8405 90.9321 51.9574C88.2159 53.2788 85.4701 54.98 84.0298 57.6966C83.6595 58.3838 83.3892 59.1326 83.2144 59.9203C83.1873 60.0372 83.0125 60.0208 83.0083 59.8998C82.973 59.0792 83.0585 58.2402 83.2583 57.4134C84.1096 54.0913 86.7151 51.532 89.396 49.5169C91.7668 48.0539 94.3211 46.8726 96.898 45.7728C97.1602 45.6599 97.4228 45.5486 97.6851 45.4378C98.8756 44.9372 100.07 44.4489 101.25 43.9544C101.309 43.9298 101.367 43.903 101.427 43.8763C101.683 43.7655 101.949 43.6523 102.226 43.5375C103.912 42.8275 105.937 42.0232 107.992 41.0814H104.321V39.263H111.595C115.485 37.0675 118.767 34.2546 119.063 30.514H106.402V28.6976H118.98C118.391 25.1746 115.39 22.7104 112.103 20.8226H104.321V19.0042H108.582C108.086 18.7662 107.601 18.5383 107.134 18.3187C106.577 18.0664 106.016 17.8205 105.457 17.5785L109.106 16.0521ZM83.0132 0.097997C83.0196 -0.0207655 83.194 -0.0370923 83.2192 0.0794423C84.0664 3.95354 87.4743 6.38933 90.9565 8.04526C93.5604 9.61086 96.3098 10.8752 99.103 12.055L95.4282 13.5912C93.3931 12.6741 91.3786 11.6775 89.4038 10.5082C86.0485 8.06426 82.7655 4.41944 83.0132 0.097997Z" fill="#FF1414"/>
<path d="M108.862 46.6349C110.819 47.5197 112.757 48.4834 114.656 49.6056C117.98 52.0227 121.234 55.6295 120.986 59.9034C120.98 60.0208 120.807 60.0366 120.782 59.921C119.943 56.0897 116.568 53.6808 113.118 52.0431C111.304 50.9533 107.429 49.1715 105.186 48.171L108.862 46.6349ZM120.424 0.0782363C120.449 -0.0369009 120.622 -0.0206574 120.628 0.0987441C120.663 0.910525 120.576 1.74076 120.378 2.56066C119.535 5.8463 116.954 8.37732 114.298 10.3702C111.949 11.8172 109.419 12.9856 106.866 14.0734C106.606 14.1849 106.347 14.2948 106.087 14.4044C104.908 14.8995 103.725 15.3832 102.556 15.8722C102.498 15.8965 102.44 15.9229 102.38 15.9493C102.126 16.0589 101.862 16.1707 101.588 16.2843C99.9199 16.9844 97.9137 17.7796 95.8809 18.711H99.5156V20.5089H92.3115C88.7631 22.5079 85.7239 25.0246 85.0352 28.298H97.3691V30.0939H84.8975C85.0975 34.0451 88.2823 36.7289 91.7998 38.7482H99.5156V40.546H95.2891C95.7818 40.7814 96.2647 41.0086 96.7266 41.2257C97.1884 41.4347 97.8252 41.711 98.4395 41.9747L94.8125 43.4864C92.9982 42.6504 91.0644 41.6884 89.2666 40.546C88.3925 39.9921 87.5509 39.3934 86.7695 38.7482C84.089 36.5279 82.1131 33.7306 82.0059 30.0939C82.0017 29.9905 82 29.8868 82 29.7814C82.0021 29.2701 82.0412 28.7768 82.1113 28.298C82.5877 25.0976 84.5343 22.5728 87.1426 20.5089C87.9528 19.8657 88.8269 19.2691 89.7402 18.711C92.3176 17.1342 95.2084 15.8613 97.8662 14.7472C98.1322 14.6356 98.3945 14.5266 98.6543 14.4191C99.6357 14.0112 100.576 13.6235 101.446 13.2501C101.751 13.1223 102.058 12.9941 102.363 12.8683C102.631 12.7567 102.897 12.6468 103.163 12.5372C106.225 11.2729 109.273 10.0231 112.104 8.31847C112.318 8.18453 112.55 8.07282 112.776 7.95714C115.467 6.65019 118.186 4.96732 119.613 2.28038C119.982 1.59853 120.251 0.857489 120.424 0.0782363Z" fill="#FF1414"/>
<path d="M1.56751 23.1005C0.701416 23.1005 0 22.4336 0 21.5675C0 20.7014 0.699383 20 1.56751 20C2.43564 20 3.16756 20.6669 3.16756 21.5675C3.16756 22.4682 2.43361 23.1005 1.56751 23.1005ZM0.502174 26.6685L2.53526 26.6014V42.2725H0.502174V26.6685Z" fill="#2F2F2F"/>
<path d="M21.7707 44.5524C21.7707 47.3865 19.3025 49.3546 13.8681 49.3546C8.73247 49.3546 6 47.6874 6 44.9875C6 43.2878 7.06737 42.0863 8.86666 41.454C7.76676 40.9864 7.06534 40.1874 7.06534 38.8862C7.06534 37.585 8.13271 36.6518 9.33224 36.353C8.13271 35.3527 7.4313 33.9193 7.4313 32.1851C7.4313 28.8508 9.96453 26.6165 13.7664 26.6165C15.5677 26.6165 17.0681 27.0841 18.168 27.9502C19.4347 27.5171 19.9348 26.216 19.9348 24.5488L21.7016 24.9148C21.7016 27.4826 20.0019 28.615 19.0016 28.7492C19.7356 29.6499 20.1686 30.8168 20.1686 32.1831C20.1686 35.5173 17.6354 37.7517 13.801 37.7517C12.6665 37.7517 11.6662 37.5525 10.8001 37.1845C9.63313 37.3512 8.89919 37.8513 8.89919 38.6524C8.89919 39.9536 10.3 40.2524 12.5994 40.2524H16.0008C19.6014 40.2524 21.7687 41.8199 21.7687 44.5544L21.7707 44.5524ZM19.7701 44.5524C19.7701 42.7511 18.3693 41.9846 15.6694 41.9846H12.0688C9.26718 41.9846 8.00056 43.1516 8.00056 44.7191C8.00056 46.6201 9.96859 47.6203 13.8681 47.6203C17.7675 47.6203 19.7701 46.6526 19.7701 44.5524ZM9.46642 32.1831C9.46642 34.5171 11.1661 36.0846 13.7684 36.0846C16.3708 36.0846 18.1355 34.5171 18.1355 32.1831C18.1355 29.8491 16.4013 28.2816 13.801 28.2816C11.2006 28.2816 9.46642 29.8491 9.46642 32.1831Z" fill="#2F2F2F"/>
</svg>
