<svg width="115" height="60" viewBox="0 0 115 60" fill="none" xmlns="http://www.w3.org/2000/svg">
<path d="M7.98197 20.6965C5.03015 20.6965 3.01727 22.1969 3.01727 24.5635C3.01727 30.2317 15.565 27.2309 15.565 35.4669C15.565 38.8337 12.6132 41.1026 7.98402 41.1026C3.89075 41.1026 1.27441 39.6348 0 38.5694L1.30919 36.9348C2.34836 37.8009 4.36124 39.2688 7.98606 39.2688C11.4084 39.2688 13.4887 37.7359 13.4887 35.4669C13.4887 28.9326 0.908251 32.2323 0.908251 24.598C0.908251 21.1641 3.82734 18.8627 7.98811 18.8627C13.3885 18.8627 14.8327 22.1644 15.3687 23.797L13.3558 24.2971C13.053 23.1627 11.7111 20.6965 7.98811 20.6965H7.98197Z" fill="#2F2F2F"/>
<path d="M37.0693 25.8322L35.0564 26.1657C35.0564 24.4985 33.647 20.6966 28.9502 20.6966C24.6217 20.6966 21.2342 24.1305 21.2342 30.0001C21.2342 36.2356 24.8918 39.2689 29.4207 39.2689C32.8083 39.2689 34.9562 37.2358 35.9626 35.8676L37.2718 37.1687C36.5333 38.169 34.0847 41.1028 29.3532 41.1028C23.2819 41.1028 19.1211 37.002 19.1211 30.0001C19.1211 22.9981 23.2144 18.8628 28.9175 18.8628C35.0564 18.8628 37.0018 23.4637 37.0693 25.8322Z" fill="#2F2F2F"/>
<path d="M58.0359 41.003C58.0359 41.003 57.4652 41.1027 56.7615 41.1027C51.1259 41.1027 52.6355 32.2669 46.5294 32.2669H43.8128V40.936H41.7324V19.064H48.174C52.971 19.064 55.8901 21.3309 55.8901 25.7325C55.8901 29.0342 53.6767 31.167 50.4897 31.9334C53.8117 33.2 54.0797 39.403 57.3343 39.403C57.6698 39.403 57.8702 39.3359 57.8702 39.3359L58.038 41.003H58.0359ZM47.8038 30.5997C51.1913 30.5997 53.7749 28.8655 53.7749 25.7325C53.7749 22.5995 51.627 20.8653 48.0718 20.8653H43.8108V30.6018H47.8038V30.5997Z" fill="#2F2F2F"/>
<path d="M115 40.9359H112.584L102.152 25.0656C101.446 23.9311 100.374 22.0973 100.239 21.8309L100.104 21.898C100.171 22.1643 100.239 23.4981 100.239 24.8663L100.306 40.9379H98.1934V19.0659H100.609L111.042 35.0379C112.048 36.6379 112.619 37.6728 112.92 38.238L113.087 38.1709C113.055 37.8049 112.92 36.5363 112.92 35.17L112.887 19.0659H115V40.9379V40.9359Z" fill="#2F2F2F"/>
<path d="M79.8721 16.0974C79.4528 16.2743 79.0333 16.4491 78.6201 16.6219C79.9804 17.1871 81.3393 17.7666 82.6914 18.3826C83.1494 18.6 83.6257 18.8256 84.1123 19.0613H79.9258V20.8631H87.5742C90.8041 22.7335 93.7541 25.1751 94.333 28.6658H81.9707V30.4656H94.4141C94.1234 34.1717 90.8982 36.9592 87.0752 39.1346H79.9258V40.9353H83.5342C81.5152 41.8685 79.5241 42.6655 77.8672 43.3689C77.5952 43.4828 77.3336 43.5951 77.082 43.7049C77.0227 43.7313 76.9655 43.7576 76.9082 43.782C75.7485 44.2719 74.5743 44.7557 73.4043 45.2517C73.1465 45.3615 72.8886 45.472 72.6309 45.5838C70.0985 46.6735 67.5886 47.8442 65.2588 49.2937C62.624 51.2902 60.0622 53.8254 59.2256 57.117C59.0292 57.9362 58.9457 58.7677 58.9805 59.5808C58.9846 59.7008 59.156 59.7172 59.1826 59.6014C59.3545 58.8207 59.6203 58.0783 59.9844 57.3973C61.3999 54.7056 64.0982 53.02 66.7676 51.7107C66.9925 51.5949 67.2219 51.4835 67.4346 51.3494C70.2432 49.6416 73.267 48.3894 76.3047 47.1228C76.5686 47.0131 76.8327 46.9026 77.0986 46.7908C77.4013 46.6648 77.7061 46.537 78.0088 46.409C78.872 46.0349 79.8047 45.6467 80.7783 45.2381C81.036 45.1303 81.2957 45.0198 81.5596 44.908C84.1984 43.7918 87.069 42.515 89.626 40.9353C90.532 40.3763 91.3993 39.7769 92.2031 39.1346C95.1753 36.7579 97.2802 33.7712 97.3008 29.8474C97.2987 26.0497 95.3024 23.1482 92.5654 20.8631C91.7901 20.2145 90.9532 19.6163 90.0879 19.0613C88.067 17.7664 85.8782 16.7035 83.8818 15.7928C83.3521 15.5488 82.818 15.3126 82.2842 15.0808C81.4762 15.4265 80.6719 15.764 79.8721 16.0974ZM59.1729 0.0788914C59.1483 -0.0369948 58.9759 -0.0204732 58.9697 0.0974461C58.7245 4.37896 61.9526 7.99153 65.25 10.4129C67.8949 11.9905 70.6134 13.2554 73.3545 14.4285C73.7186 14.276 74.0768 14.1257 74.4307 13.9773C75.2162 13.648 75.9613 13.3371 76.667 13.0301C76.7855 12.9793 76.9039 12.9304 77.0225 12.8816C73.5123 11.4321 70.0288 9.94346 66.7764 7.97147C63.3541 6.33079 60.0055 3.91727 59.1729 0.0788914Z" fill="url(#paint0_linear_1681_3)"/>
<path d="M80.4849 46.0228C79.6995 46.3521 78.9551 46.6632 78.2495 46.9701C78.1309 47.0209 78.0117 47.0697 77.8931 47.1185C81.4034 48.5681 84.8876 50.0566 88.1402 52.0287C91.5623 53.6694 94.9111 56.0829 95.7437 59.9213C95.7686 60.0366 95.9395 60.0203 95.9458 59.9027C96.1913 55.621 92.9631 52.0077 89.6655 49.5863C87.0207 48.0087 84.302 46.7447 81.5611 45.5717C81.197 45.7241 80.8387 45.8744 80.4849 46.0228ZM95.938 0.416389C95.9318 0.296615 95.7596 0.280258 95.7349 0.395881C95.5631 1.17658 95.2973 1.91883 94.9312 2.60194C93.5156 5.29375 90.8175 6.97915 88.148 8.28846C87.923 8.40434 87.6937 8.51659 87.481 8.65076C84.6725 10.3584 81.6494 11.6108 78.6118 12.8773C78.348 12.9871 78.0838 13.0966 77.8179 13.2084C77.5152 13.3344 77.2105 13.4631 76.9077 13.5912C76.0446 13.9652 75.1118 14.3535 74.1382 14.7621C73.8805 14.8698 73.6199 14.9794 73.356 15.0912C70.7193 16.2073 67.8514 17.4822 65.2945 19.0619C64.3883 19.621 63.5212 20.2192 62.7173 20.8637C60.1296 22.9313 58.1986 25.4602 57.7261 28.6664C57.6565 29.1462 57.6178 29.6404 57.6157 30.1527C57.6157 30.2582 57.6175 30.3617 57.6216 30.4652C57.728 34.1085 59.6879 36.9109 62.3472 39.1351C63.1223 39.7815 63.9567 40.381 64.8237 40.9359C66.8448 42.233 69.0361 43.2966 71.0347 44.2074C71.5644 44.4514 72.0985 44.6876 72.6323 44.9193C73.4402 44.5738 74.2438 44.2361 75.0435 43.9027C75.4628 43.7259 75.8823 43.5501 76.2954 43.3773C74.9353 42.8122 73.577 42.2335 72.2251 41.6176C71.7669 41.4 71.2882 41.1718 70.7993 40.9359H74.9927V39.1351H67.3384C63.8486 37.1122 60.6882 34.4236 60.4898 30.4652H72.8638V28.6664H60.6265C61.3097 25.3871 64.3249 22.8662 67.8452 20.8637H74.9927V19.0619H71.3862C73.4031 18.1287 75.3935 17.3317 77.0484 16.6303C77.3204 16.5164 77.5829 16.4051 77.8345 16.2953C77.8938 16.2689 77.9511 16.2425 78.0083 16.2181C79.1682 15.7282 80.3422 15.2435 81.5122 14.7474C81.7699 14.6377 82.028 14.5282 82.2857 14.4164C84.818 13.3267 87.3279 12.1559 89.6577 10.7064C92.2925 8.70993 94.8533 6.17378 95.69 2.88221C95.8863 2.06095 95.9728 1.22951 95.938 0.416389Z" fill="url(#paint1_linear_1681_3)"/>
<defs>
<linearGradient id="paint0_linear_1681_3" x1="68.9271" y1="49.9997" x2="72.927" y2="9.99992" gradientUnits="userSpaceOnUse">
<stop stop-color="#9AC5FF"/>
<stop offset="0.49969" stop-color="#B5FFB4"/>
<stop offset="1" stop-color="#FADA80"/>
</linearGradient>
<linearGradient id="paint1_linear_1681_3" x1="80.4264" y1="11.9999" x2="89.4265" y2="50.9999" gradientUnits="userSpaceOnUse">
<stop stop-color="#9AC5FF"/>
<stop offset="0.5" stop-color="#FF6E6E"/>
<stop offset="1" stop-color="#FADA80"/>
</linearGradient>
</defs>
</svg>
