<svg width="66" height="100" viewBox="0 0 66 100" fill="none" xmlns="http://www.w3.org/2000/svg">
<path d="M37.9497 23.8199C38.5279 24.0624 39.1128 24.3083 39.7078 24.5574C44.1866 22.6406 48.6286 20.5744 52.9503 17.9966C58.3383 14.0401 63.6126 8.13705 63.2115 1.14104C63.2015 0.948371 62.9207 0.921795 62.8806 1.11115C61.5202 7.38297 56.0487 11.3261 50.4569 14.0069C45.1425 17.2292 39.4504 19.6609 33.7148 22.0294C33.9087 22.1091 34.1026 22.1889 34.2964 22.2719C35.4496 22.7735 36.6662 23.2818 37.9497 23.8199Z" fill="#FF1414"/>
<path d="M63.1932 98.3342C63.1865 98.5302 62.9057 98.5567 62.8623 98.3674C62.5815 97.0918 62.147 95.8792 61.552 94.7664C59.2391 90.3681 54.8305 87.6143 50.4687 85.4749C50.101 85.2856 49.7267 85.1029 49.379 84.8836C44.7899 82.0932 39.8499 80.0469 34.8864 77.9773C34.4552 77.7979 34.0241 77.6185 33.5896 77.4358C33.0949 77.2299 32.5969 77.0206 32.1022 76.8113C30.6917 76.2001 29.1676 75.5656 27.5766 74.8979C27.1555 74.7218 26.731 74.5424 26.2998 74.3597C21.9881 72.536 17.2987 70.4498 13.1207 67.8686C11.6401 66.9551 10.2229 65.9751 8.90932 64.9254C4.05282 61.0421 0.613502 56.1621 0.580078 49.7508C0.583421 43.5454 3.8456 38.805 8.31772 35.0711C9.58449 34.0114 10.9515 33.0348 12.3654 32.1279C15.6676 30.0118 19.244 28.2744 22.5062 26.7862C23.3719 26.3876 24.2442 26.0022 25.1166 25.6235C26.4368 26.1883 27.7504 26.7397 29.0573 27.2845C29.7425 27.5735 30.4277 27.8592 31.1028 28.1416C28.8801 29.0651 26.6608 30.0118 24.4515 31.0184C23.7028 31.3738 22.924 31.7425 22.1285 32.1279H28.9704V35.0711H16.4732C11.1955 38.1273 6.37578 42.117 5.42989 47.8207H25.628V50.7607H5.29619C5.77081 56.8166 11.0418 61.3709 17.2887 64.9254H28.9704V67.8686H23.0744C26.3733 69.3934 29.6255 70.6956 32.3328 71.845C32.7774 72.031 33.2052 72.2137 33.6163 72.3931C33.7132 72.4363 33.8068 72.4795 33.9004 72.5194C35.7955 73.32 37.7141 74.1106 39.6259 74.9211C40.0471 75.1005 40.4682 75.2799 40.8894 75.4626C45.0272 77.2432 49.1284 79.1566 52.9353 81.5251C57.2404 84.7873 61.425 88.9297 62.7921 94.308C63.1129 95.6467 63.25 97.0054 63.1932 98.3342Z" fill="#FF1414"/>
<path d="M28.0529 76.1801C27.4746 75.9376 26.8897 75.6918 26.2948 75.4426C21.8159 77.3594 17.3739 79.4256 13.0522 82.0035C7.66425 85.9599 2.38995 91.863 2.79104 98.859C2.80107 99.0517 3.08183 99.0782 3.12194 98.8889C4.48229 92.6171 9.9538 88.6739 15.5456 85.9931C20.86 82.7708 26.5521 80.3392 32.2877 77.9706C32.0938 77.8909 31.9 77.8112 31.7061 77.7281C30.553 77.2265 29.3363 76.7183 28.0529 76.1801Z" fill="#FF1414"/>
<path d="M65.4198 50.2493C65.4198 50.422 65.4164 50.5914 65.4098 50.7609C65.236 56.7138 62.0339 61.2914 57.6888 64.9256C56.4221 65.982 55.0583 66.962 53.6412 67.8689C50.3389 69.9883 46.7592 71.7256 43.4937 73.2139C42.628 73.6125 41.7556 73.9978 40.8833 74.3765C39.563 73.8118 38.2495 73.2604 36.9426 72.7156C36.2574 72.4266 35.5722 72.1409 34.897 71.8585C37.1197 70.935 39.3391 69.9883 41.5484 68.9817C42.2971 68.6263 43.0792 68.2542 43.878 67.8689H37.0261V64.9256H49.5334C55.2355 61.6203 60.3995 57.2287 60.7237 50.7609H40.5056V47.8209H60.4998C59.3834 42.4627 54.4567 38.3435 48.7045 35.0713H37.0261V32.1281H42.9188C39.6232 30.6033 36.371 29.3011 33.667 28.1551C33.2225 27.969 32.7947 27.7863 32.3835 27.6069C32.2866 27.5638 32.193 27.5206 32.0994 27.4807C30.2043 26.6801 28.2858 25.8895 26.3739 25.0789C25.9528 24.8996 25.5316 24.7202 25.1105 24.5375C20.9726 22.7569 16.8715 20.8435 13.0645 18.4749C8.7595 15.2128 4.57482 11.0703 3.20778 5.6921C2.88691 4.35004 2.74652 2.99137 2.80334 1.66259C2.81337 1.4666 3.09414 1.44002 3.13425 1.62937C3.41501 2.905 3.84952 4.11751 4.44781 5.23368C6.76075 9.63193 11.1694 12.3858 15.5312 14.5251C15.8989 14.7145 16.2732 14.8972 16.6208 15.1164C21.2099 17.9069 26.15 19.9532 31.1134 22.0228C31.5446 22.2021 31.9758 22.3815 32.4103 22.5642C32.905 22.7702 33.403 22.9795 33.8976 23.1888C35.3081 23.8 36.8323 24.4345 38.4233 25.1022C38.8444 25.2783 39.2689 25.4576 39.7001 25.6404C44.0084 27.4641 48.6944 29.547 52.8724 32.1281C54.3531 33.0416 55.7703 34.0183 57.0838 35.0713C61.312 38.4498 64.4672 42.5822 65.2393 47.8209C65.3529 48.6049 65.4164 49.4122 65.4198 50.2493Z" fill="#FF1414"/>
</svg>
