<svg width="84" height="126" viewBox="0 0 84 126" fill="none" xmlns="http://www.w3.org/2000/svg">
<path d="M35.7136 29.7513C34.9792 30.0593 34.2364 30.3715 33.4808 30.6879C27.7927 28.2536 22.1513 25.6295 16.6627 22.3556C9.82004 17.331 3.12168 9.83403 3.63107 0.949107C3.6438 0.704412 4.00036 0.670662 4.0513 0.911137C5.77895 8.87635 12.7278 13.8841 19.8294 17.2888C26.5787 21.3811 33.8076 24.4693 41.0918 27.4773C40.8456 27.5786 40.5994 27.6798 40.3532 27.7853C38.8887 28.4223 37.3436 29.0678 35.7136 29.7513Z" fill="#FF1414"/>
<path d="M3.6552 124.384C3.6637 124.633 4.02026 124.667 4.07544 124.427C4.43201 122.807 4.98384 121.267 5.73943 119.853C8.67686 114.268 14.2758 110.77 19.8153 108.053C20.2823 107.813 20.7577 107.581 21.1991 107.302C27.0273 103.758 33.3012 101.16 39.6048 98.5312C40.1524 98.3033 40.6999 98.0755 41.2518 97.8435C41.88 97.5819 42.5125 97.3161 43.1407 97.0503C44.932 96.2741 46.8677 95.4683 48.8882 94.6203C49.4231 94.3967 49.9622 94.1689 50.5098 93.9368C55.9856 91.6207 61.9411 88.9712 67.2472 85.6932C69.1276 84.533 70.9275 83.2884 72.5957 81.9552C78.7634 77.0234 83.1314 70.8259 83.1738 62.6835C83.1696 54.8026 79.0266 48.7823 73.347 44.0403C71.7382 42.6945 70.0021 41.4542 68.2065 40.3024C64.0126 37.615 59.4706 35.4085 55.3277 33.5185C54.2283 33.0122 53.1204 32.5228 52.0125 32.0419C50.3357 32.7591 48.6675 33.4594 47.0078 34.1513C46.1376 34.5183 45.2674 34.8812 44.4099 35.2398C47.2328 36.4126 50.0513 37.615 52.8572 38.8933C53.808 39.3447 54.7971 39.813 55.8073 40.3024H47.1181V44.0403H62.9896C69.6922 47.9217 75.8133 52.9885 77.0146 60.2323H51.363V63.966H77.1844C76.5816 71.657 69.8875 77.4411 61.9539 81.9552H47.1181V85.6932H54.606C50.4164 87.6296 46.2861 89.2834 42.8478 90.7431C42.2833 90.9794 41.7399 91.2114 41.2178 91.4393C41.0947 91.4941 40.9759 91.549 40.857 91.5996C38.4502 92.6163 36.0136 93.6204 33.5856 94.6498C33.0507 94.8776 32.5159 95.1054 31.981 95.3375C26.7259 97.5988 21.5175 100.029 16.6826 103.037C11.2153 107.18 5.90073 112.441 4.16459 119.271C3.75709 120.971 3.58304 122.697 3.6552 124.384Z" fill="#FF1414"/>
<path d="M48.2847 96.2487C49.0191 95.9407 49.7619 95.6285 50.5175 95.3121C56.2056 97.7464 61.847 100.371 67.3356 103.644C74.1782 108.669 80.8766 116.166 80.3672 125.051C80.3545 125.296 79.9979 125.329 79.947 125.089C78.2193 117.124 71.2705 112.116 64.1689 108.711C57.4196 104.619 50.1906 101.531 42.9065 98.5227C43.1527 98.4214 43.3989 98.3202 43.6451 98.2147C45.1096 97.5777 46.6547 96.9322 48.2847 96.2487Z" fill="#FF1414"/>
<path d="M0.828651 63.3166C0.828651 63.536 0.832893 63.7511 0.841385 63.9663C1.06212 71.5265 5.12868 77.3401 10.647 81.9555C12.2558 83.2971 13.9877 84.5417 15.7875 85.6934C19.9814 88.3851 24.5276 90.5915 28.6748 92.4816C29.7742 92.9878 30.8821 93.4772 31.99 93.9582C33.6667 93.241 35.335 92.5406 36.9947 91.8487C37.8649 91.4817 38.7351 91.1189 39.5925 90.7603C36.7697 89.5874 33.9512 88.3851 31.1453 87.1067C30.1945 86.6553 29.2012 86.1828 28.1867 85.6934H36.8886V81.9555H21.0044C13.7627 77.7577 7.20441 72.1804 6.79266 63.9663H32.4697V60.2326H7.07706C8.49483 53.4276 14.7517 48.1962 22.0571 44.0406H36.8886V40.3027H29.4049C33.5903 38.3662 37.7206 36.7124 41.1546 35.2569C41.7192 35.0207 42.2626 34.7886 42.7847 34.5608C42.9078 34.506 43.0266 34.4511 43.1455 34.4005C45.5523 33.3837 47.9888 32.3796 50.4169 31.3502C50.9517 31.1224 51.4866 30.8946 52.0214 30.6626C57.2766 28.4013 62.485 25.9712 67.3199 22.9631C72.7872 18.8202 78.1018 13.5593 79.8379 6.72896C80.2454 5.02454 80.4237 3.29902 80.3515 1.61148C80.3388 1.36256 79.9822 1.32881 79.9313 1.56929C79.5747 3.18933 79.0229 4.72922 78.2631 6.14676C75.3256 11.7325 69.7267 15.23 64.1872 17.9469C63.7202 18.1874 63.2448 18.4194 62.8033 18.6979C56.9752 22.2417 50.7013 24.8405 44.3977 27.4689C43.8501 27.6967 43.3025 27.9245 42.7507 28.1566C42.1225 28.4181 41.49 28.6839 40.8618 28.9497C39.0704 29.726 37.1348 30.5318 35.1142 31.3798C34.5794 31.6034 34.0403 31.8312 33.4927 32.0632C28.0211 34.3794 22.0698 37.0246 16.7638 40.3027C14.8833 41.4629 13.0835 42.7032 11.4153 44.0406C6.04556 48.3312 2.03844 53.5794 1.05788 60.2326C0.913551 61.2282 0.832893 62.2534 0.828651 63.3166Z" fill="#FF1414"/>
</svg>
